<svg xmlns="http://www.w3.org/2000/svg" version="1.1" xmlns:xlink="http://www.w3.org/1999/xlink" xmlns:svgjs="http://svgjs.dev/svgjs" width="1500" height="291" viewBox="0 0 1500 291"><g transform="matrix(1,0,0,1,-0.9090909090909918,-0.1085583860065924)"><svg viewBox="0 0 396 77" data-background-color="#ffffff" preserveAspectRatio="xMidYMid meet" height="291" width="1500" xmlns="http://www.w3.org/2000/svg" xmlns:xlink="http://www.w3.org/1999/xlink"><g id="tight-bounds" transform="matrix(1,0,0,1,0.2400000000000091,0.4176823888724357)"><svg viewBox="0 0 395.52 76.1646352222551" height="76.1646352222551" width="395.52"><g><svg viewBox="0 0 500.28831624777314 96.33969739322372" height="76.1646352222551" width="395.52"><g transform="matrix(1,0,0,1,104.76831624777317,13.31467597836884)"><svg viewBox="0 0 395.52 69.71034543648604" height="69.71034543648604" width="395.52"><g id="textblocktransform"><svg viewBox="0 0 395.52 69.71034543648604" height="69.71034543648604" width="395.52" id="textblock"><g><svg viewBox="0 0 395.52 69.71034543648604" height="69.71034543648604" width="395.52"><g transform="matrix(1,0,0,1,0,0)"><svg width="395.52" viewBox="3.3 -38.38 221.19 38.99" height="69.71034543648604" data-palette-color="#636365"><path d="M11.01-10.21L11.01-1.29Q11.01-0.56 10.71-0.28 10.4 0 9.67 0L9.67 0 4.64 0Q3.91 0 3.6-0.28 3.3-0.56 3.3-1.29L3.3-1.29 3.3-34.33Q3.3-34.91 3.54-35.23L3.54-35.23Q4.57-36.57 6.54-38.13L6.54-38.13Q6.88-38.38 7.15-38.38L7.15-38.38Q7.47-38.38 7.76-38.13L7.76-38.13Q8.81-37.33 9.53-36.62 10.25-35.91 10.77-35.23L10.77-35.23Q11.01-34.91 11.01-34.33L11.01-34.33 11.01-15.16 11.3-15.16Q15.01-15.16 16.35-16.49 17.68-17.82 17.68-20.19L17.68-20.19 17.68-21.51Q17.68-22.09 17.92-22.41L17.92-22.41Q18.95-23.75 20.92-25.32L20.92-25.32Q21.26-25.56 21.53-25.56L21.53-25.56Q21.85-25.56 22.14-25.32L22.14-25.32Q23.19-24.51 23.91-23.8 24.63-23.1 25.15-22.41L25.15-22.41Q25.39-22.09 25.39-21.51L25.39-21.51 25.39-20.19Q25.39-18.8 24.84-17.11 24.29-15.43 22.85-14.14 21.41-12.84 18.75-12.62L18.75-12.62 18.75-12.5Q20.8-11.6 22.29-10.11 23.78-8.62 24.78-6.92 25.78-5.22 26.33-3.67 26.88-2.12 27.05-1.05L27.05-1.05Q27.22 0 26.34 0L26.34 0 19.92 0Q19.09 0 18.97-1L18.97-1Q18.8-2.15 18.23-3.7 17.65-5.25 16.69-6.74 15.72-8.23 14.37-9.22 13.01-10.21 11.3-10.21L11.3-10.21 11.01-10.21ZM38.06 0.61L38.06 0.61Q34.47 0.61 32.36-1.4 30.25-3.42 30.25-6.96L30.25-6.96Q30.25-8.79 30.92-10.36 31.59-11.94 33.26-13.15 34.93-14.36 37.95-15.09 40.96-15.82 45.65-15.94L45.65-15.94Q45.65-18.16 44.54-19.14 43.43-20.12 41.21-20.12L41.21-20.12Q39.21-20.12 37.94-19.43 36.67-18.75 36.35-18.51L36.35-18.51Q36.01-18.21 35.52-18.29L35.52-18.29Q34.86-18.38 34.12-18.63 33.37-18.87 32.52-19.19L32.52-19.19Q32.39-19.24 32.25-19.35 32.1-19.46 32.08-19.68L32.08-19.68Q32.08-19.8 32.1-19.98 32.13-20.17 32.22-20.65L32.22-20.65Q32.32-21.14 32.52-21.86 32.71-22.58 32.88-22.97L32.88-22.97Q33.1-23.39 33.62-23.75L33.62-23.75Q34.03-24.1 36.13-24.85 38.23-25.61 42.21-25.61L42.21-25.61Q53.17-25.61 53.17-14.94L53.17-14.94 53.17-1.12Q53.17-0.66 52.91-0.33 52.66 0 52.05 0L52.05 0 48.39 0Q48 0 47.69-0.11 47.39-0.22 47.12-0.54L47.12-0.54 45.6-2.49 45.43-2.49Q44.31-0.85 42.42-0.12 40.52 0.61 38.06 0.61ZM40.74-5.05L40.74-5.05Q42.99-5.05 44.14-6.2 45.29-7.35 45.6-8.57L45.6-8.57 45.6-11.28Q42.21-11.28 40.51-10.75 38.82-10.23 38.25-9.39 37.69-8.54 37.69-7.57L37.69-7.57Q37.69-6.15 38.57-5.6 39.45-5.05 40.74-5.05ZM67.48-22.17L67.48-20.36 67.57-20.36Q69.4-25.44 74.16-25.44L74.16-25.44Q74.78-25.44 75.17-25.38 75.56-25.32 75.7-25.27L75.7-25.27Q76.07-25.15 76.07-24.71L76.07-24.71 76.07-18.82Q76.07-18.07 75.19-18.41L75.19-18.41Q74.9-18.53 74.35-18.66 73.8-18.8 72.82-18.8L72.82-18.8Q70.31-18.8 68.89-16.96 67.48-15.11 67.48-11.94L67.48-11.94 67.48-1.29Q67.48-0.56 67.17-0.28 66.87 0 66.13 0L66.13 0 61.1 0Q60.37 0 60.07-0.28 59.76-0.56 59.76-1.29L59.76-1.29 59.76-21.75Q59.76-22.34 60-22.66L60-22.66Q60.52-23.34 61.24-24.05 61.96-24.76 63.01-25.56L63.01-25.56Q63.2-25.71 63.4-25.76 63.59-25.81 63.74-25.81L63.74-25.81Q64.08-25.81 64.42-25.56L64.42-25.56Q66.45-23.97 67.26-22.85L67.26-22.85Q67.48-22.56 67.48-22.17L67.48-22.17ZM78.58-33.2L78.58-33.2Q78.58-33.52 78.78-33.76 78.97-34.01 79.29-34.4L79.29-34.4Q79.97-35.18 80.88-36.05 81.78-36.91 82.71-37.72L82.71-37.72Q83.29-38.18 83.59-38.18L83.59-38.18Q83.88-38.18 84.49-37.72L84.49-37.72Q86.47-36.01 87.86-34.4L87.86-34.4Q88.18-34.03 88.38-33.78 88.59-33.52 88.59-33.2L88.59-33.2Q88.59-32.89 88.38-32.64 88.18-32.4 87.83-31.98L87.83-31.98Q87.18-31.23 86.3-30.36 85.42-29.49 84.49-28.71L84.49-28.71Q84.15-28.42 83.95-28.33 83.76-28.25 83.59-28.25L83.59-28.25Q83.42-28.25 83.23-28.33 83.05-28.42 82.66-28.71L82.66-28.71Q81.68-29.49 80.83-30.36 79.97-31.23 79.29-32.03L79.29-32.03Q78.97-32.42 78.78-32.65 78.58-32.89 78.58-33.2ZM87.42-23.71L87.42-1.29Q87.42-0.56 87.11-0.28 86.81 0 86.08 0L86.08 0 81.05 0Q80.31 0 80.01-0.28 79.7-0.56 79.7-1.29L79.7-1.29 79.7-23.71Q79.7-24.44 80.01-24.72 80.31-25 81.05-25L81.05-25 86.08-25Q86.81-25 87.11-24.72 87.42-24.44 87.42-23.71L87.42-23.71ZM114.81 0.61L114.81 0.61Q112.19 0.61 110.47 0.17 108.75-0.27 107.71-0.89 106.68-1.51 106.09-2.03L106.09-2.03Q105.65-2.44 105.99-2.95L105.99-2.95 108.48-6.64Q109.02-7.42 109.7-6.74L109.7-6.74Q110.41-6.05 111.62-5.41 112.83-4.76 114.64-4.76L114.64-4.76Q116.25-4.76 117.28-5.31 118.32-5.86 118.32-6.91L118.32-6.91Q118.32-7.64 117.86-8.11 117.39-8.57 116.22-9.06 115.05-9.55 112.95-10.3L112.95-10.3Q109.85-11.43 108.26-13.01 106.68-14.6 106.68-17.65L106.68-17.65Q106.68-20.46 108.23-22.22 109.78-23.97 112.21-24.79 114.64-25.61 117.27-25.61L117.27-25.61Q120.62-25.61 121.97-24.99 123.33-24.37 123.72-24.02L123.72-24.02Q124.08-23.71 124.23-23.29L124.23-23.29Q124.55-22.34 124.72-20.78L124.72-20.78Q124.82-19.87 124.26-19.58L124.26-19.58Q123.96-19.41 123.33-19.21 122.69-19.02 122.06-18.87 121.42-18.73 121.11-18.73L121.11-18.73Q121.01-18.73 120.9-18.79 120.79-18.85 120.52-19.09L120.52-19.09Q120.2-19.41 119.43-19.82 118.66-20.24 117.32-20.24L117.32-20.24Q116-20.24 115.11-19.81 114.22-19.38 114.22-18.31L114.22-18.31Q114.22-17.14 115.36-16.55 116.49-15.97 119.1-15.04L119.1-15.04Q121.15-14.33 122.68-13.49 124.21-12.65 125.04-11.29 125.87-9.94 125.87-7.64L125.87-7.64Q125.87-4.66 124.24-2.84 122.62-1.03 120.09-0.21 117.57 0.61 114.81 0.61ZM140.51 0.61L140.51 0.61Q132.36 0.61 132.36-7.86L132.36-7.86 132.36-19.31 129.6-19.31Q128.87-19.31 128.59-19.62 128.31-19.92 128.31-20.65L128.31-20.65 128.31-23.66Q128.31-24.39 128.59-24.69 128.87-25 129.6-25L129.6-25 132.36-25 132.36-28.93Q132.36-29.52 132.6-29.83L132.6-29.83Q133.63-31.18 135.61-32.74L135.61-32.74Q135.95-32.98 136.22-32.98L136.22-32.98Q136.51-32.98 136.8-32.74L136.8-32.74Q137.85-31.93 138.57-31.23 139.29-30.52 139.8-29.83L139.8-29.83Q140.05-29.52 140.05-28.93L140.05-28.93 140.05-25 144.37-25Q145.1-25 145.38-24.69 145.66-24.39 145.66-23.66L145.66-23.66 145.66-20.65Q145.66-19.92 145.38-19.62 145.1-19.31 144.37-19.31L144.37-19.31 140.05-19.31 140.05-9.2Q140.05-5.3 142.88-5.3L142.88-5.3Q143.32-5.3 143.69-5.38 144.05-5.47 144.32-5.57L144.32-5.57Q144.83-5.76 145.04-5.71 145.25-5.66 145.42-5.18L145.42-5.18 146.84-1.39Q147.06-0.78 146.54-0.51L146.54-0.51Q146.18-0.34 144.77 0.13 143.37 0.61 140.51 0.61ZM162.9 0.61L162.9 0.61Q156.75 0.61 153.16-2.66 149.57-5.93 149.57-12.4L149.57-12.4Q149.57-19.04 153.29-22.33 157.01-25.61 163.24-25.61L163.24-25.61Q169.25-25.61 172.86-22.38 176.47-19.14 176.47-12.84L176.47-12.84Q176.47-6.27 172.86-2.83 169.25 0.61 162.9 0.61ZM163.14-5.3L163.14-5.3Q165.83-5.3 167.19-6.97 168.56-8.64 168.56-12.7L168.56-12.7Q168.56-16.55 167.18-18.13 165.8-19.7 163.09-19.7L163.09-19.7Q160.48-19.7 158.98-18.01 157.48-16.31 157.48-12.5L157.48-12.5Q157.48-8.52 158.91-6.91 160.33-5.3 163.14-5.3ZM189.43-22.17L189.43-20.36 189.53-20.36Q191.36-25.44 196.12-25.44L196.12-25.44Q196.73-25.44 197.12-25.38 197.51-25.32 197.66-25.27L197.66-25.27Q198.03-25.15 198.03-24.71L198.03-24.71 198.03-18.82Q198.03-18.07 197.15-18.41L197.15-18.41Q196.86-18.53 196.31-18.66 195.76-18.8 194.78-18.8L194.78-18.8Q192.27-18.8 190.85-16.96 189.43-15.11 189.43-11.94L189.43-11.94 189.43-1.29Q189.43-0.56 189.13-0.28 188.82 0 188.09 0L188.09 0 183.06 0Q182.33 0 182.02-0.28 181.72-0.56 181.72-1.29L181.72-1.29 181.72-21.75Q181.72-22.34 181.96-22.66L181.96-22.66Q182.48-23.34 183.2-24.05 183.92-24.76 184.97-25.56L184.97-25.56Q185.16-25.71 185.36-25.76 185.55-25.81 185.7-25.81L185.7-25.81Q186.04-25.81 186.38-25.56L186.38-25.56Q188.41-23.97 189.21-22.85L189.21-22.85Q189.43-22.56 189.43-22.17L189.43-22.17ZM213.92 0.61L213.92 0.61Q209.79 0.61 206.74-0.72 203.69-2.05 202-4.86 200.32-7.67 200.32-12.11L200.32-12.11Q200.32-18.77 203.74-22.19 207.16-25.61 212.82-25.61L212.82-25.61Q216.51-25.61 219.06-24.29 221.61-22.97 222.94-20.65 224.27-18.33 224.27-15.36L224.27-15.36Q224.27-12.45 222.78-11.3 221.29-10.16 218.43-10.16L218.43-10.16 207.96-10.16Q208.16-7.64 209.8-6.32 211.45-5 214.28-5L214.28-5Q216.53-5 217.89-5.68 219.24-6.35 219.78-6.74L219.78-6.74Q220.24-7.08 220.83-7.06L220.83-7.06Q221.29-7.06 222.16-6.87 223.02-6.69 223.88-6.2L223.88-6.2Q224.49-5.88 224.49-5.32L224.49-5.32Q224.49-5 224.37-4.42L224.37-4.42Q224.29-4.08 224.12-3.43 223.95-2.78 223.68-2.22L223.68-2.22Q223.54-1.95 223.22-1.71L223.22-1.71Q222.73-1.37 221.64-0.81 220.56-0.24 218.68 0.18 216.8 0.61 213.92 0.61ZM207.91-15.16L207.91-15.16 215.87-15.16Q217.12-15.16 217.12-16.31L217.12-16.31Q217.12-18.04 216.03-19.23 214.94-20.41 212.77-20.41L212.77-20.41Q210.4-20.41 209.29-18.9 208.18-17.38 207.91-15.16Z" opacity="1" transform="matrix(1,0,0,1,0,0)" fill="#636365" class="wordmark-text-0" data-fill-palette-color="primary" id="text-0"></path></svg></g></svg></g></svg></g></svg></g><g><svg viewBox="0 0 88.3113767385093 96.33969739322372" height="96.33969739322372" width="88.3113767385093"><g><svg xmlns="http://www.w3.org/2000/svg" xmlns:xlink="http://www.w3.org/1999/xlink" version="1.1" x="0" y="0" viewBox="4 -0.000013630257384019798 88 96.00001363025738" enable-background="new 0 0 96 96" xml:space="preserve" id="icon-0" width="88.3113767385093" height="96.33969739322372" class="icon-icon-0" data-fill-palette-color="accent"><path d="M60 72H72V96H60z" fill="#89939e" data-fill-palette-color="accent"></path><path d="M24 72H36V96H24z" fill="#89939e" data-fill-palette-color="accent"></path><path d="M72 41.756C68.736 41.756 65.828 40.304 64 37.868 62.172 40.296 59.264 41.94 56 41.94S49.828 40.396 48 37.964C46.172 40.396 43.268 41.984 40 41.984S33.828 40.412 32 37.984C30.172 40.412 27.268 41.992 24 41.992S17.828 40.42 16 37.992C14.172 40.42 11.268 42 8 42V94C8 95.1 8.896 96 10 96H20V70C20 68.9 20.896 68 22 68H38C39.104 68 40 68.9 40 70V96H56V70C56 68.9 56.9 68 58 68H74C75.1 68 76 68.9 76 70V96H86C87.1 96 88 95.1 88 94V41.052C84.916 41.052 81.368 40.136 79.779 37.8 77.943 40.072 75.141 41.756 72 41.756M72 58C72 59.1 71.1 60 70 60H26C24.896 60 24 59.1 24 58V50C24 48.9 24.896 48 26 48H70C71.1 48 72 48.9 72 50z" fill="#89939e" data-fill-palette-color="accent"></path><path d="M28 52H68V56H28z" fill="#89939e" data-fill-palette-color="accent"></path><path d="M85.884 1.328A1.99 1.99 0 0 0 84 0H11.876C11.028 0 10.272 0.536 9.988 1.336L4 18.316V32C4 35.252 5.832 38 8 38 11.308 38 14 35.308 14 32 14 30.9 14.896 30 16 30S18 30.9 18 32C18 35.308 20.692 38 24 38S30 35.308 30 32C30 30.9 30.896 30 32 30S34 30.9 34 32C34 35.308 36.692 38 40 38S46 35.308 46 32C46 30.9 46.896 30 48 30S50 30.9 50 32C50 35.308 52.691 38 56 38S62 35.308 62 32C62 30.9 62.9 30 64 30S66 30.9 66 32C66 35.308 68.691 38 72 38S78 35.308 78 32C78 30.9 78.9 30 80 30S82 30.9 82 32C82 34.764 83.309 38 87 38S92 34.764 92 32V18.456z" fill="#89939e" data-fill-palette-color="accent"></path></svg></g></svg></g></svg></g><defs></defs></svg><rect width="395.52" height="76.1646352222551" fill="none" stroke="none" visibility="hidden"></rect></g></svg></g></svg>